<svg width="40" height="40" viewBox="0 0 40 40" fill="none" xmlns="http://www.w3.org/2000/svg">
<g clip-path="url(#clip0_1015_6396)">
<path d="M20 40C31.0457 40 40 31.0457 40 20C40 8.95431 31.0457 0 20 0C8.95431 0 0 8.95431 0 20C0 31.0457 8.95431 40 20 40Z" fill="#2D74FF"/>
<path d="M27.6 9.73334H12.4C11.0667 9.73334 10 10.8 10 12.1333V27.8C10 29.1333 11.0667 30.2 12.4 30.2H23.9333L29.9333 32.6667V12.1333C29.9333 10.8 28.8667 9.73334 27.6 9.73334ZM27 25.1333C25.2 26.5333 22.6667 27.3333 20 27.3333C19.9333 27.3333 19.9333 27.3333 19.8667 27.3333C17.2667 27.3333 14.8 26.5333 13 25.1333C12.6667 24.8667 12.6667 24.4667 12.8667 24.1333C13.1333 23.8 13.5333 23.8 13.8667 24C15.4 25.2 17.6 25.8667 19.8667 25.8667C22.2667 25.8667 24.5333 25.2 26.1333 23.9333C26.4667 23.6667 26.8667 23.7333 27.1333 24.0667C27.3333 24.4667 27.3333 24.8667 27 25.1333Z" fill="white"/>
</g>
<defs>
<clipPath id="clip0_1015_6396">
<rect width="40" height="40" fill="white"/>
</clipPath>
</defs>
</svg>
