<svg width="160" height="50" viewBox="0 0 160 50" fill="none" xmlns="http://www.w3.org/2000/svg">
<path fill-rule="evenodd" clip-rule="evenodd" d="M16.4383 18.6147C16.8314 17.0616 17.5736 15.8636 18.7963 15.0649C20.7176 14 23.2065 14 25.2588 14C25.693 14.0111 26.1346 14.0166 26.5805 14.0221C29.7223 14.0616 33.0785 14.1038 35.5639 16.0854C36.9613 17.461 37.3979 19.5908 37.3542 21.5876C37.1905 21.6541 37.0267 21.6458 36.863 21.6375C36.8084 21.6348 36.7539 21.632 36.6992 21.632H36.2625C35.9423 21.6024 35.6222 21.6123 35.3019 21.6221C35.1418 21.6271 34.9817 21.632 34.8216 21.632C34.123 21.6764 33.4679 21.6764 32.9004 21.5876L32.898 21.5517C32.855 20.8949 32.8067 20.1574 32.4636 19.5908C32.0707 18.9697 31.5467 18.5703 30.848 18.3928C27.3985 17.816 24.9532 17.8604 21.8966 18.659C21.1543 19.014 20.8049 19.8127 20.6303 20.7002C20.1935 24.5162 20.1062 30.462 21.7218 31.527C22.5063 32.0916 23.4864 32.1342 24.4426 32.1756C24.7638 32.1896 25.0823 32.2034 25.3898 32.237C25.736 32.2076 26.0823 32.217 26.4411 32.2268C26.6253 32.2318 26.8129 32.237 27.0055 32.237C27.0557 32.2381 27.1061 32.2393 27.1565 32.2405C29.0336 32.2848 31.0134 32.3317 32.289 30.9058C32.944 29.8852 32.9877 28.5096 32.8566 27.3559H25.5645V23.9837L37.5726 23.9393V23.9837C37.5502 24.582 37.5482 25.2153 37.5461 25.8666C37.5361 29.0314 37.5247 32.6242 35.1709 34.7218C34.9089 34.9436 34.6469 35.1211 34.3849 35.2542C29.407 36.9404 24.0362 36.7185 19.0583 35.0767C17.7484 34.4112 16.7003 33.2575 16.3947 31.7045C16.0453 29.619 15.958 27.6666 15.9144 25.5811C15.9351 25.022 15.9435 24.4628 15.9519 23.9049C15.9789 22.1162 16.0056 20.3397 16.4383 18.6147ZM55.3444 16.8397H50.7158V14.4436L55.3444 14.488V16.8397ZM64.907 29.7964V14.488H69.6229V19.8569C69.6102 19.883 69.5936 19.9013 69.5799 19.9166C69.5469 19.9534 69.5303 19.9717 69.6229 20.0345C72.1993 18.5258 76.1728 18.4814 78.618 20.1676C80.4095 21.6645 80.5314 24.1939 80.6382 26.4112C80.6486 26.6258 80.6588 26.8376 80.6704 27.0453C80.6267 28.5984 80.5393 30.1513 80.1464 31.7931C79.797 33.3905 78.9674 34.5442 77.6574 35.2541C73.7712 36.674 69.3609 36.6296 65.562 35.1653C64.7914 34.5702 64.8476 33.5991 64.9014 32.6735C64.9237 32.2881 64.9456 31.9105 64.907 31.5712C64.9507 31.3937 64.9507 31.305 64.907 31.1719C68.0073 31.9706 71.4132 32.7249 74.5135 31.7043C75.2558 31.305 75.7361 30.5951 75.9109 29.6633C75.9279 29.2984 75.9617 28.9164 75.9963 28.5269C76.1381 26.9267 76.2913 25.1969 75.3432 23.9836C74.1642 23.0518 72.4612 23.1849 71.1076 23.3181C70.4526 23.4956 69.9286 23.8948 69.6666 24.4717C69.461 24.8895 69.4436 25.2799 69.4245 25.7073C69.4194 25.8247 69.4141 25.9448 69.4046 26.0691V29.7964H64.907ZM57.7032 14.5324L57.746 16.8397L62.3309 16.8841V14.5324H57.7032ZM111.368 27.9771L111.455 14.6654H116.04V19.6794H119.271L119.314 23.4511L116.127 23.4954C116.127 24.1972 116.113 24.97 116.098 25.7714C116.039 28.9229 115.973 32.5169 116.738 33.9673C116.912 34.4202 117.253 34.8017 117.597 35.1847C117.859 35.4772 118.121 35.7705 118.31 36.0972C117.708 35.966 117.021 36.0072 116.291 36.0508L116.258 36.0529C114.555 36.1415 112.852 36.2302 112.066 34.5442C111.438 33.6447 111.445 32.0244 111.451 30.4149C111.455 29.563 111.458 28.7143 111.368 27.9771ZM51.1468 21.9176C51.1386 20.9247 51.1306 19.9445 51.1961 19.014C51.8753 18.8908 52.5545 18.8359 53.2338 18.7812C53.7772 18.7373 54.3205 18.6935 54.8639 18.6147C57.5275 18.659 60.8898 19.014 62.4181 21.2326C62.5927 21.7208 62.7674 22.2088 62.7674 22.6969V29.7076C62.5112 29.7161 62.2489 29.7276 61.9826 29.7394C60.8417 29.7897 59.6293 29.8432 58.5318 29.6633C57.7895 28.5096 56.3049 28.2877 54.9949 28.199C54.9231 28.2071 54.8504 28.2151 54.777 28.2231C53.644 28.3468 52.3457 28.4884 51.8947 29.5301C51.72 30.0627 51.851 30.6395 52.1129 30.9944C54.4273 32.6362 57.5275 32.2369 60.1038 31.7488C60.6481 31.6962 61.177 31.534 61.6996 31.3739C62.0574 31.2642 62.4125 31.1553 62.7674 31.0832C62.7674 31.4436 62.7857 31.8188 62.8044 32.1993C62.85 33.1306 62.8971 34.0931 62.6801 34.9436C60.1474 35.9641 57.4402 36.1416 54.9075 36.0972C54.6426 36.0621 54.3745 36.0301 54.105 35.9979C53.3533 35.9081 52.5903 35.8169 51.851 35.6536C50.3227 35.3873 49.0127 34.7217 48.1393 33.4793C47.1351 31.5713 47.2661 29.0865 48.0084 27.1341C48.4888 26.0248 49.493 25.5368 50.5846 25.093C53.2919 24.4273 56.1739 24.738 58.5318 25.8916C58.5318 24.9599 58.5318 23.7618 57.6148 23.2737C57.2655 23.0962 56.9162 23.0075 56.5669 22.9632C55.4316 22.7857 54.2962 22.83 53.161 22.8744L53.0975 22.8784C52.4226 22.9213 51.7875 22.9617 51.1523 22.9188C51.1523 22.5846 51.1496 22.2504 51.1468 21.9176ZM44.0351 20.7001C44.4717 20.1233 45.1267 19.6352 45.8253 19.3246C46.524 19.014 47.2226 18.8809 47.9649 18.8365C48.7509 18.8365 49.5369 19.014 50.2356 19.3246C50.2522 19.3585 50.2752 19.3794 50.295 19.3973C50.3268 19.4263 50.3498 19.4472 50.3229 19.5021C50.3042 20.0726 50.3096 20.6431 50.3149 21.2136C50.3221 21.9743 50.3291 22.7349 50.2792 23.4956C48.7946 22.6969 46.8297 22.6082 45.345 23.4068C44.7773 23.7618 44.3407 24.1612 44.1224 24.8267C44.0289 27.1533 44.0354 29.0735 44.0417 30.8998C44.0471 32.4869 44.0522 34.003 43.9913 35.6536H39.6248L39.5811 19.5021L44.0351 19.4133V20.7001ZM104.119 20.1867C104.108 20.3689 104.097 20.5454 104.163 20.7001C105.167 19.6352 106.783 19.1914 108.398 19.1914C108.704 19.1914 109.053 19.1914 109.359 19.2358C109.42 19.2483 109.484 19.2599 109.549 19.2716C109.948 19.3439 110.394 19.4249 110.582 19.7683V24.028C109.271 23.4068 107.612 22.963 106.128 23.5399C105.167 23.895 104.337 24.4273 104.075 25.5366L104.032 35.7866H99.6213L99.5777 19.6352H104.075C104.141 19.8134 104.13 20.0029 104.119 20.1867ZM82.3297 22.9187C82.7228 21.5431 83.5524 20.5226 84.7314 20.0346C86.3907 19.4577 88.1373 19.2358 89.8839 19.2358C91.7616 19.2358 93.5955 19.5021 95.4295 19.9902C96.7831 20.4782 97.2198 21.4544 97.5255 22.6524C97.5431 22.7781 97.5679 22.8964 97.5911 23.0074C97.6254 23.1711 97.6564 23.319 97.6564 23.4512C97.8311 25.226 97.5255 27.4447 96.4774 28.7759C94.0322 30.3288 90.8009 30.0627 88.05 29.2195C88.0268 29.2039 88.005 29.1894 87.9845 29.1761C87.8894 29.1137 87.8239 29.0707 87.788 28.9976C87.7443 27.9327 87.7007 26.8678 87.788 25.8916C89.2726 26.291 90.8446 26.5128 92.3292 26.1579C92.8533 26.0248 93.2462 25.8916 93.3772 25.4479C93.6392 24.8711 93.5519 24.2942 93.2462 23.895C92.4165 22.8299 89.8839 22.963 88.312 23.1849C87.4823 23.3624 86.871 23.8062 86.6526 24.5605C86.3907 25.581 86.3033 26.5572 86.3033 27.4891C86.3322 27.7384 86.3552 27.9974 86.3784 28.2603C86.4957 29.5882 86.622 31.0152 87.5696 31.7931C90.8446 32.9911 94.6435 32.1925 97.7001 30.8169C97.7875 32.1481 97.7875 33.8343 96.9578 34.8548C95.9972 35.6535 94.5562 35.9641 93.2899 36.186C90.1896 36.541 86.5653 36.5854 84.0764 34.8104C83.4651 34.2779 83.0284 33.7012 82.7228 33.0799C82.2424 32.015 82.0678 30.9057 81.9368 29.7964C81.7184 27.4447 81.7622 25.226 82.3297 22.9187ZM31.6942 47.6586L30.8747 47.7318C30.8861 48.1795 31.0068 48.5816 31.2352 48.9365C31.4636 49.2918 31.779 49.5578 32.1807 49.7341C32.5823 49.9114 33.0803 49.9998 33.675 49.9998C34.1437 49.9998 34.5657 49.9122 34.9408 49.7364C35.3159 49.5614 35.6031 49.3162 35.8033 49.0005C36.0034 48.6849 36.1036 48.3491 36.1036 47.9924C36.1036 47.6325 36.0122 47.3147 35.8302 47.0387C35.6482 46.7632 35.3658 46.535 34.9832 46.3551C34.7203 46.2334 34.2357 46.0909 33.5297 45.9277C32.8227 45.7649 32.3862 45.6053 32.2187 45.4498C32.0487 45.2947 31.9634 45.0962 31.9634 44.8555C31.9634 44.5782 32.0836 44.3405 32.3239 44.1445C32.5642 43.9474 32.9473 43.8496 33.4735 43.8496C33.9781 43.8496 34.3598 43.9577 34.6182 44.1737C34.8767 44.3907 35.0278 44.7108 35.0728 45.1341L35.9066 45.0706C35.8912 44.6774 35.7837 44.3248 35.5836 44.0141C35.3834 43.703 35.0976 43.4677 34.7256 43.3071C34.3536 43.1475 33.9241 43.0673 33.4377 43.0673C32.9954 43.0673 32.5938 43.1434 32.232 43.2963C31.871 43.4487 31.5962 43.6719 31.4075 43.9659C31.2193 44.2603 31.1252 44.5764 31.1252 44.915C31.1252 45.223 31.2021 45.5012 31.3562 45.7496C31.51 45.9976 31.7438 46.2059 32.0575 46.3732C32.2996 46.5044 32.7224 46.6442 33.3255 46.792C33.929 46.9395 34.3187 47.0487 34.4945 47.119C34.7694 47.2258 34.9668 47.3575 35.0862 47.5144C35.2059 47.6713 35.2655 47.8548 35.2655 48.0654C35.2655 48.2728 35.2037 48.464 35.08 48.6394C34.9554 48.8143 34.7667 48.9523 34.5127 49.0533C34.2587 49.1534 33.9662 49.2044 33.6347 49.2044C33.261 49.2044 32.9251 49.1376 32.6265 49.0051C32.3278 48.8724 32.1074 48.6989 31.9655 48.4839C31.8232 48.2687 31.7332 47.9937 31.6942 47.6586ZM20.4373 47.5349L21.3069 47.7591C21.1248 48.4877 20.7965 49.0436 20.3233 49.4255C19.8497 49.8083 19.2709 50 18.587 50C17.8787 50 17.303 49.8529 16.8595 49.558C16.4158 49.2641 16.0783 48.8385 15.8468 48.2803C15.6153 47.7225 15.5 47.1232 15.5 46.4834C15.5 45.7855 15.6303 45.1768 15.8918 44.6564C16.153 44.137 16.5249 43.742 17.0074 43.472C17.49 43.2027 18.0209 43.0676 18.6007 43.0676C19.2577 43.0676 19.8104 43.2384 20.2583 43.5797C20.7064 43.921 21.0183 44.4013 21.195 45.0204L20.3388 45.2259C20.1869 44.7381 19.9655 44.3832 19.6756 44.1605C19.3858 43.9378 19.0217 43.8264 18.5826 43.8264C18.0775 43.8264 17.6556 43.9504 17.3167 44.1969C16.9774 44.4441 16.7393 44.7755 16.6019 45.1916C16.4644 45.6078 16.3959 46.037 16.3959 46.4785C16.3959 47.0489 16.4773 47.5462 16.6399 47.9718C16.8029 48.397 17.0561 48.7145 17.3998 48.925C17.7431 49.1356 18.1151 49.2407 18.5154 49.2407C19.0023 49.2407 19.4145 49.0973 19.752 48.811C20.0896 48.5242 20.3176 48.099 20.4373 47.5349ZM27.5722 43.1819H28.4417V47.055C28.4417 47.7286 28.367 48.2639 28.2177 48.6598C28.0679 49.0561 27.7988 49.3785 27.4087 49.627C27.019 49.8758 26.5073 49.9998 25.8738 49.9998C25.2588 49.9998 24.7555 49.8916 24.3641 49.6747C23.9726 49.4587 23.6934 49.1453 23.5259 48.7351C23.3585 48.3252 23.275 47.7652 23.275 47.055V43.1819H24.1445V47.0501C24.1445 47.6327 24.1975 48.0614 24.3035 48.3379C24.4096 48.6133 24.5916 48.8261 24.8501 48.9754C25.1085 49.1251 25.4245 49.1994 25.7978 49.1994C26.4372 49.1994 26.8926 49.052 27.1644 48.7558C27.436 48.4601 27.5722 47.8915 27.5722 47.0501V43.1819ZM40.105 50V43.8857H38.0659V43.0673H42.9716V43.8857H40.9239V50H40.105ZM45.4951 48.5439C45.0675 48.0793 44.8534 47.4435 44.8534 46.6361C44.8534 45.628 45.0763 44.9079 45.5227 44.4771C45.9685 44.0459 46.5006 43.83 47.1193 43.83C47.554 43.83 47.9471 43.9422 48.2966 44.1663C48.6466 44.3902 48.9127 44.7056 49.0942 45.112C49.2754 45.519 49.3665 45.9948 49.3665 46.5401C49.3665 47.4025 49.1543 48.0681 48.7292 48.5371C48.3046 49.0066 47.7632 49.241 47.1055 49.241C46.4597 49.241 45.9233 49.0089 45.4951 48.5439ZM44.8357 44.0109C44.2472 44.6398 43.9527 45.5105 43.9527 46.6226C43.9527 47.2102 44.0789 47.7681 44.3311 48.2953C44.5835 48.8225 44.9542 49.2379 45.4436 49.5425C45.933 49.8476 46.4887 50 47.11 50C47.6833 50 48.2181 49.8616 48.7132 49.5863C49.2088 49.3105 49.5917 48.9045 49.8617 48.3683C50.1322 47.8321 50.2673 47.2246 50.2673 46.5451C50.2673 45.875 50.1388 45.2753 49.8822 44.7466C49.6255 44.2181 49.2524 43.8063 48.763 43.5102C48.2736 43.2151 47.7242 43.0673 47.1144 43.0673C46.1836 43.0673 45.4241 43.3818 44.8357 44.0109ZM52.6948 49.8855V43.1863H54.0098L55.5722 47.9293C55.717 48.3714 55.8218 48.7018 55.8876 48.9211C55.9626 48.6774 56.0799 48.3196 56.2389 47.8473L57.8203 43.1863H58.996V49.8855H58.1534V44.2785L56.2348 49.8855H55.4465L53.5369 44.1825V49.8855H52.6948ZM61.7516 43.1863V49.8855H66.679V49.0947H62.6256V46.8145H66.278V46.0283H62.6256V43.9771H66.5258V43.1863H61.7516ZM70.1022 46.1429H71.9804C72.3796 46.1429 72.6919 46.1009 72.9171 46.0171C73.1421 45.9334 73.3132 45.799 73.4304 45.6152C73.5477 45.4309 73.6063 45.2308 73.6063 45.0141C73.6063 44.6973 73.493 44.4368 73.2661 44.2328C73.0392 44.0286 72.6816 43.9263 72.1917 43.9263H70.1022V46.1429ZM69.2281 49.8856V43.1859H72.1558C72.7442 43.1859 73.1919 43.2463 73.4979 43.3665C73.8043 43.4869 74.049 43.6995 74.2325 44.0041C74.4154 44.3088 74.5069 44.6454 74.5069 45.014C74.5069 45.4894 74.355 45.8895 74.0522 46.2157C73.7488 46.542 73.2803 46.7493 72.6465 46.8371C72.8779 46.9498 73.0537 47.0612 73.1737 47.1706C73.429 47.4086 73.6706 47.7055 73.8989 48.062L75.0475 49.8856H73.9482L73.0747 48.4918C72.8192 48.0894 72.6097 47.7821 72.444 47.5686C72.2788 47.355 72.1309 47.2057 72.0003 47.1206C71.8697 47.035 71.737 46.9759 71.6019 46.9421C71.5024 46.9214 71.3408 46.9101 71.1152 46.9101H70.1022V49.8856H69.2281ZM82.5062 46.3711H80.7991V43.977H82.4884C82.8847 43.977 83.1564 43.9963 83.3039 44.036C83.5317 44.1 83.7155 44.2316 83.8554 44.4312C83.9949 44.6308 84.0651 44.871 84.0651 45.1508C84.0651 45.538 83.9461 45.838 83.7089 46.0511C83.4718 46.2647 83.0707 46.3711 82.5062 46.3711ZM79.9254 43.1863V49.8855H80.7991V47.162H82.4925C83.4265 47.162 84.0722 46.9641 84.4298 46.5699C84.7868 46.1751 84.9658 45.6935 84.9658 45.1234C84.9658 44.7917 84.8982 44.4866 84.765 44.2096C84.6314 43.9325 84.455 43.7166 84.2357 43.5634C84.0167 43.4092 83.7449 43.3047 83.4207 43.2498C83.1893 43.2074 82.8544 43.1863 82.4161 43.1863H79.9254ZM87.9777 46.6361C87.9777 47.4435 88.1913 48.0793 88.6195 48.5439C89.0472 49.0089 89.5841 49.241 90.2299 49.241C90.8876 49.241 91.429 49.0066 91.8536 48.5371C92.2785 48.0681 92.4908 47.4025 92.4908 46.5401C92.4908 45.9948 92.3998 45.519 92.2186 45.112C92.0369 44.7056 91.7709 44.3902 91.421 44.1663C91.0714 43.9422 90.6784 43.83 90.2436 43.83C89.6245 43.83 89.0925 44.0459 88.6465 44.4771C88.2007 44.9079 87.9777 45.628 87.9777 46.6361ZM87.077 46.6226C87.077 45.5105 87.371 44.6398 87.9595 44.0109C88.5479 43.3818 89.3079 43.0673 90.2387 43.0673C90.8484 43.0673 91.3979 43.2151 91.8873 43.5102C92.3767 43.8063 92.7497 44.2181 93.0065 44.7466C93.2631 45.2753 93.3915 45.875 93.3915 46.5451C93.3915 47.2246 93.2564 47.8321 92.986 48.3683C92.716 48.9045 92.3331 49.3105 91.8375 49.5863C91.3424 49.8616 90.8076 50 90.2343 50C89.613 50 89.0573 49.8476 88.5674 49.5425C88.0785 49.2379 87.7076 48.8225 87.4549 48.2953C87.2032 47.7681 87.077 47.2102 87.077 46.6226ZM97.791 46.1429H95.9128V43.9263H98.0029C98.4927 43.9263 98.8502 44.0286 99.0771 44.2328C99.3041 44.4368 99.4174 44.6973 99.4174 45.0141C99.4174 45.2308 99.3588 45.4309 99.2415 45.6152C99.1242 45.799 98.9532 45.9334 98.728 46.0171C98.5029 46.1009 98.1907 46.1429 97.791 46.1429ZM95.0391 43.1859V49.8856H95.9127V46.9101H96.9262C97.1514 46.9101 97.3134 46.9214 97.4129 46.9421C97.548 46.9759 97.6807 47.035 97.8113 47.1206C97.9419 47.2057 98.0897 47.355 98.255 47.5686C98.4202 47.7821 98.6302 48.0894 98.8857 48.4918L99.7592 49.8856H100.858L99.7099 48.062C99.4816 47.7055 99.24 47.4086 98.9847 47.1706C98.8643 47.0612 98.6889 46.9498 98.4575 46.8371C99.0913 46.7493 99.5597 46.542 99.8631 46.2157C100.166 45.8895 100.318 45.4894 100.318 45.014C100.318 44.6454 100.226 44.3088 100.043 44.0041C99.86 43.6995 99.6153 43.4869 99.3088 43.3665C99.0029 43.2463 98.5552 43.1859 97.9668 43.1859H95.0391ZM102.897 50V43.8857H100.858V43.0673H105.764V43.8857H103.716V50H102.897ZM111.674 47.1531H109.541L110.232 45.1199C110.378 44.6816 110.491 44.24 110.571 43.7956C110.668 44.1705 110.817 44.6498 111.017 45.2332L111.674 47.1531ZM110.142 43.0673L107.726 50H108.61L109.301 47.9006H111.931L112.665 50H113.613L111.039 43.0673H110.142ZM115.575 50V43.0673H116.407V49.1816H119.5V50H115.575Z" fill="#2B2523"/>
<path fill-rule="evenodd" clip-rule="evenodd" d="M8.05553 0V7.53106H0.5V9.46888H8.05553V17H9.94442V9.46888H17.5V7.53106H9.94442V0H8.05553Z" fill="#FFE500"/>
<path fill-rule="evenodd" clip-rule="evenodd" d="M141.999 9C132.346 9 124.5 16.8571 124.5 26.5C124.5 36.1428 132.346 44 141.999 44C151.654 44 159.5 36.1428 159.5 26.5C159.5 16.8571 151.654 9 141.999 9Z" fill="#2B2523"/>
<path fill-rule="evenodd" clip-rule="evenodd" d="M154.391 37L147.559 33.7246C146.694 33.3262 146.132 32.441 146.132 31.5115V30.3607C146.132 29.9623 146.219 29.6082 146.391 29.2542L146.867 28.3689C147.645 26.9082 148.035 25.2706 148.035 23.5885V22.9689C148.035 21.6853 147.731 20.4017 147.084 19.2508C146.219 17.6574 144.489 16.6394 142.63 16.5951H142.413C140.554 16.5951 138.824 17.6132 137.959 19.2508C137.354 20.4017 137.008 21.6853 137.008 22.9689V23.5885C137.008 25.2263 137.398 26.8639 138.175 28.3689L138.652 29.2542C138.824 29.6082 138.91 29.9623 138.91 30.3607V31.5115C138.91 32.441 138.349 33.3262 137.484 33.7246L130.652 37C128.057 34.123 126.5 30.3165 126.5 26.1558C126.5 17.259 133.679 10 142.5 10C151.32 10 158.499 17.259 158.499 26.1558C158.542 30.3165 156.942 34.123 154.391 37Z" fill="#2B2523"/>
<path fill-rule="evenodd" clip-rule="evenodd" d="M154.391 37L147.559 33.7246C146.694 33.3262 146.132 32.441 146.132 31.5115V30.3607C146.132 29.9623 146.218 29.6082 146.392 29.2542L146.867 28.3689C147.645 26.9082 148.034 25.2706 148.034 23.5885V22.9689C148.034 21.6853 147.732 20.4017 147.083 19.2508C146.218 17.6574 144.489 16.6394 142.629 16.5951H142.413C140.554 16.5951 138.823 17.6132 137.958 19.2508C137.353 20.4017 137.007 21.6853 137.007 22.9689V23.5885C137.007 25.2263 137.397 26.8639 138.176 28.3689L138.651 29.2542C138.823 29.6082 138.911 29.9623 138.911 30.3607V31.5115C138.911 32.441 138.348 33.3262 137.483 33.7246L130.651 37C128.056 34.123 126.5 30.3165 126.5 26.1558C126.5 17.259 133.678 10 142.5 10C151.321 10 158.499 17.259 158.499 26.1558C158.543 30.3165 156.943 34.123 154.391 37Z" fill="white"/>
<path fill-rule="evenodd" clip-rule="evenodd" d="M141.999 9C132.346 9 124.5 16.8571 124.5 26.5C124.5 36.1428 132.346 44 141.999 44C151.654 44 159.5 36.1428 159.5 26.5C159.5 16.8571 151.654 9 141.999 9Z" stroke="#2B2523" stroke-width="0.823529"/>
<path fill-rule="evenodd" clip-rule="evenodd" d="M141.999 9C132.346 9 124.5 16.8571 124.5 26.5C124.5 36.1428 132.346 44 141.999 44C151.654 44 159.5 36.1428 159.5 26.5C159.5 16.8571 151.654 9 141.999 9Z" stroke="#2B2523" stroke-width="0.823529"/>
<path fill-rule="evenodd" clip-rule="evenodd" d="M154.391 37L147.559 33.7246C146.694 33.3262 146.132 32.441 146.132 31.5115V30.3607C146.132 29.9623 146.219 29.6082 146.391 29.2542L146.867 28.3689C147.645 26.9082 148.035 25.2706 148.035 23.5885V22.9689C148.035 21.6853 147.731 20.4017 147.084 19.2508C146.219 17.6574 144.489 16.6394 142.63 16.5951H142.413C140.554 16.5951 138.824 17.6132 137.959 19.2508C137.354 20.4017 137.008 21.6853 137.008 22.9689V23.5885C137.008 25.2263 137.398 26.8639 138.175 28.3689L138.652 29.2542C138.824 29.6082 138.91 29.9623 138.91 30.3607V31.5115C138.91 32.441 138.349 33.3262 137.484 33.7246L130.652 37C128.057 34.123 126.5 30.3165 126.5 26.1558C126.5 17.259 133.679 10 142.5 10C151.32 10 158.499 17.259 158.499 26.1558C158.542 30.3165 156.942 34.123 154.391 37Z" stroke="#2B2523" stroke-width="0.823529"/>
<path fill-rule="evenodd" clip-rule="evenodd" d="M154.391 37L147.559 33.7246C146.694 33.3262 146.132 32.441 146.132 31.5115V30.3607C146.132 29.9623 146.219 29.6082 146.391 29.2542L146.867 28.3689C147.645 26.9082 148.035 25.2706 148.035 23.5885V22.9689C148.035 21.6853 147.731 20.4017 147.084 19.2508C146.219 17.6574 144.489 16.6394 142.63 16.5951H142.413C140.554 16.5951 138.824 17.6132 137.959 19.2508C137.354 20.4017 137.008 21.6853 137.008 22.9689V23.5885C137.008 25.2263 137.398 26.8639 138.175 28.3689L138.652 29.2542C138.824 29.6082 138.91 29.9623 138.91 30.3607V31.5115C138.91 32.441 138.349 33.3262 137.484 33.7246L130.652 37C128.057 34.123 126.5 30.3165 126.5 26.1558C126.5 17.259 133.679 10 142.5 10C151.32 10 158.499 17.259 158.499 26.1558C158.542 30.3165 156.942 34.123 154.391 37Z" stroke="#2B2523" stroke-width="0.823529"/>
<path fill-rule="evenodd" clip-rule="evenodd" d="M154.391 37L147.559 33.7246C146.694 33.3262 146.132 32.441 146.132 31.5115V30.3607C146.132 29.9623 146.218 29.6082 146.392 29.2542L146.867 28.3689C147.645 26.9082 148.034 25.2706 148.034 23.5885V22.9689C148.034 21.6853 147.732 20.4017 147.083 19.2508C146.218 17.6574 144.489 16.6394 142.629 16.5951H142.413C140.554 16.5951 138.823 17.6132 137.958 19.2508C137.353 20.4017 137.007 21.6853 137.007 22.9689V23.5885C137.007 25.2263 137.397 26.8639 138.176 28.3689L138.651 29.2542C138.823 29.6082 138.911 29.9623 138.911 30.3607V31.5115C138.911 32.441 138.348 33.3262 137.483 33.7246L130.651 37C128.056 34.123 126.5 30.3165 126.5 26.1558C126.5 17.259 133.678 10 142.5 10C151.321 10 158.499 17.259 158.499 26.1558C158.543 30.3165 156.943 34.123 154.391 37Z" stroke="#2B2523" stroke-width="0.823529"/>
</svg>
