<svg width="17" height="10" viewBox="0 0 17 10" fill="none" xmlns="http://www.w3.org/2000/svg">
<path d="M14.9941 3.85907H8.73164C8.11664 2.11157 6.45164 0.85907 4.49414 0.85907C2.01164 0.85907 -0.00585938 2.87657 -0.00585938 5.35907C-0.00585938 7.84157 2.01164 9.85907 4.49414 9.85907C6.45164 9.85907 8.11664 8.60657 8.73164 6.85907H8.99414L10.4941 8.35907L11.9941 6.85907L13.4941 8.35907L16.4941 5.32907L14.9941 3.85907ZM4.49414 7.60907C3.25664 7.60907 2.24414 6.59657 2.24414 5.35907C2.24414 4.12157 3.25664 3.10907 4.49414 3.10907C5.73164 3.10907 6.74414 4.12157 6.74414 5.35907C6.74414 6.59657 5.73164 7.60907 4.49414 7.60907Z" fill="#191919"/>
</svg>
