<svg width="16" height="16" viewBox="0 0 16 16" fill="none" xmlns="http://www.w3.org/2000/svg">
<path d="M8.24414 0.85907C4.10414 0.85907 0.744141 4.21907 0.744141 8.35907C0.744141 12.4991 4.10414 15.8591 8.24414 15.8591C12.3841 15.8591 15.7441 12.4991 15.7441 8.35907C15.7441 4.21907 12.3841 0.85907 8.24414 0.85907ZM8.24414 3.10907C9.48914 3.10907 10.4941 4.11407 10.4941 5.35907C10.4941 6.60407 9.48914 7.60907 8.24414 7.60907C6.99914 7.60907 5.99414 6.60407 5.99414 5.35907C5.99414 4.11407 6.99914 3.10907 8.24414 3.10907ZM8.24414 13.7591C6.36914 13.7591 4.71164 12.7991 3.74414 11.3441C3.76664 9.85157 6.74414 9.03407 8.24414 9.03407C9.73664 9.03407 12.7216 9.85157 12.7441 11.3441C11.7766 12.7991 10.1191 13.7591 8.24414 13.7591Z" fill="#191919"/>
</svg>
