<svg width="14" height="14" viewBox="0 0 14 14" fill="none" xmlns="http://www.w3.org/2000/svg">
<path d="M0.494141 1.69244V12.1924C0.494141 13.0174 1.16164 13.6924 1.99414 13.6924H12.4941C13.3191 13.6924 13.9941 13.0174 13.9941 12.1924V1.69244C13.9941 0.867444 13.3191 0.192444 12.4941 0.192444H1.99414C1.16164 0.192444 0.494141 0.867444 0.494141 1.69244ZM9.49414 4.69244C9.49414 5.93744 8.48914 6.94244 7.24414 6.94244C5.99914 6.94244 4.99414 5.93744 4.99414 4.69244C4.99414 3.44744 5.99914 2.44244 7.24414 2.44244C8.48914 2.44244 9.49414 3.44744 9.49414 4.69244ZM2.74414 10.6924C2.74414 9.19244 5.74414 8.36744 7.24414 8.36744C8.74414 8.36744 11.7441 9.19244 11.7441 10.6924V11.4424H2.74414V10.6924Z" fill="#191919"/>
</svg>
