<svg width="16" height="16" viewBox="0 0 16 16" fill="none" xmlns="http://www.w3.org/2000/svg">
<path d="M5.24414 12.3591C4.41914 12.3591 3.75164 13.0341 3.75164 13.8591C3.75164 14.6841 4.41914 15.3591 5.24414 15.3591C6.06914 15.3591 6.74414 14.6841 6.74414 13.8591C6.74414 13.0341 6.06914 12.3591 5.24414 12.3591ZM0.744141 0.35907V1.85907H2.24414L4.94414 7.55157L3.93164 9.38907C3.81164 9.59907 3.74414 9.84657 3.74414 10.1091C3.74414 10.9341 4.41914 11.6091 5.24414 11.6091H14.2441V10.1091H5.55914C5.45414 10.1091 5.37164 10.0266 5.37164 9.92157L5.39414 9.83157L6.06914 8.60907H11.6566C12.2191 8.60907 12.7141 8.30157 12.9691 7.83657L15.6541 2.96907C15.7141 2.86407 15.7441 2.73657 15.7441 2.60907C15.7441 2.19657 15.4066 1.85907 14.9941 1.85907H3.90164L3.19664 0.35907H0.744141ZM12.7441 12.3591C11.9191 12.3591 11.2516 13.0341 11.2516 13.8591C11.2516 14.6841 11.9191 15.3591 12.7441 15.3591C13.5691 15.3591 14.2441 14.6841 14.2441 13.8591C14.2441 13.0341 13.5691 12.3591 12.7441 12.3591Z" fill="#191919"/>
</svg>
