<svg width="17" height="12" viewBox="0 0 17 12" fill="none" xmlns="http://www.w3.org/2000/svg">
<path d="M11.2441 5.10907C12.4891 5.10907 13.4866 4.10407 13.4866 2.85907C13.4866 1.61407 12.4891 0.60907 11.2441 0.60907C9.99914 0.60907 8.99414 1.61407 8.99414 2.85907C8.99414 4.10407 9.99914 5.10907 11.2441 5.10907ZM5.24414 5.10907C6.48914 5.10907 7.48664 4.10407 7.48664 2.85907C7.48664 1.61407 6.48914 0.60907 5.24414 0.60907C3.99914 0.60907 2.99414 1.61407 2.99414 2.85907C2.99414 4.10407 3.99914 5.10907 5.24414 5.10907ZM5.24414 6.60907C3.49664 6.60907 -0.00585938 7.48657 -0.00585938 9.23407V11.1091H10.4941V9.23407C10.4941 7.48657 6.99164 6.60907 5.24414 6.60907ZM11.2441 6.60907C11.0266 6.60907 10.7791 6.62407 10.5166 6.64657C11.3866 7.27657 11.9941 8.12407 11.9941 9.23407V11.1091H16.4941V9.23407C16.4941 7.48657 12.9916 6.60907 11.2441 6.60907Z" fill="#191919"/>
</svg>
